<?xml version="1.0" encoding="utf-8"?>
<!-- Generator: Adobe Illustrator 23.0.1, SVG Export Plug-In . SVG Version: 6.00 Build 0)  -->
<svg version="1.1" id="Layer_1" xmlns="http://www.w3.org/2000/svg" xmlns:xlink="http://www.w3.org/1999/xlink" x="0px" y="0px"
	 viewBox="0 0 512 512" style="enable-background:new 0 0 512 512;" xml:space="preserve">
<style type="text/css">
	.st0{fill:#010101;}
</style>
<g>
	<path class="st0" d="M443.5,16.4H214.3c-28.7,0-52.1,23.4-52.1,52.1v104.2c0,5.8,4.7,10.4,10.4,10.4c5.8,0,10.4-4.7,10.4-10.4V68.5
		c0-17.2,14-31.3,31.2-31.3h229.2c17.2,0,31.2,14,31.2,31.3v375c0,17.2-14,31.2-31.2,31.2H214.3c-17.2,0-31.2-14-31.2-31.2V339.3
		c0-5.8-4.7-10.4-10.4-10.4c-5.8,0-10.4,4.7-10.4,10.4v104.2c0,28.7,23.4,52.1,52.1,52.1h229.2c28.7,0,52.1-23.4,52.1-52.1v-375
		C495.6,39.8,472.2,16.4,443.5,16.4z"/>
	<path class="st0" d="M207,332c-4.1,4.1-4.1,10.7,0,14.7c2,2,4.7,3.1,7.4,3.1s5.3-1,7.4-3.1l83.3-83.3c0.5-0.5,1-1.1,1.4-1.7
		c0-0.1,0.1-0.1,0.1-0.2c0.1-0.2,0.3-0.5,0.4-0.7c0-0.1,0.1-0.2,0.1-0.3c0.1-0.2,0.2-0.4,0.3-0.7c0-0.1,0.1-0.2,0.1-0.3
		c0.1-0.2,0.2-0.4,0.2-0.7c0-0.1,0.1-0.2,0.1-0.3c0.1-0.2,0.1-0.4,0.2-0.6c0-0.1,0-0.3,0.1-0.4c0-0.2,0.1-0.4,0.1-0.6
		c0-0.3,0-0.6,0-0.8c0-0.1,0-0.1,0-0.2c0-0.1,0-0.1,0-0.2c0-0.3,0-0.6,0-0.8c0-0.2-0.1-0.4-0.1-0.6c0-0.1,0-0.3-0.1-0.4
		c0-0.2-0.1-0.4-0.2-0.6c0-0.1-0.1-0.2-0.1-0.3c-0.1-0.2-0.1-0.4-0.2-0.7c0-0.1-0.1-0.2-0.1-0.3c-0.1-0.2-0.2-0.4-0.3-0.7
		c0-0.1-0.1-0.2-0.1-0.3c-0.1-0.2-0.3-0.5-0.4-0.7c0-0.1-0.1-0.1-0.1-0.2c-0.4-0.6-0.9-1.2-1.4-1.7l-83.3-83.3
		c-4.1-4.1-10.7-4.1-14.7,0c-4.1,4.1-4.1,10.7,0,14.7l65.6,65.6H26.8c-5.8,0-10.4,4.7-10.4,10.4c0,5.8,4.7,10.4,10.4,10.4h245.7
		L207,332z"/>
</g>
</svg>
